<?xml version='1.0' encoding='utf-8'?>
<svg xmlns="http://www.w3.org/2000/svg" xmlns:xlink="http://www.w3.org/1999/xlink" enable-background="new 0 0 116 180" version="1.1" viewBox="0 0 116 180">
<symbol id="t" viewBox="0 -179.2 99.35 179.2">
		<use y="-179.2" width="99.35" height="179.2" xlink:href="#u"/>
</symbol>
<symbol id="u" viewBox="0 -179.2 99.35 179.2">
	<g clip-rule="evenodd" fill-rule="evenodd">
					<path d="m0.75-34.85c1e-3 0.07 0.018 0.154 0.05 0.25 0.1 0.233 0.184 0.467 0.25 0.7 0.034 0.1 0.083 0.233 0.15 0.4 2.433 7.067 6.55 13.433 12.35 19.1 10.033 9.6 22.083 14.4 36.15 14.4h1.15c13.633-0.233 25.283-5.033 34.95-14.4 0.8-0.733 1.534-1.45 2.2-2.15 4.733-5.133 8.167-10.784 10.3-16.95 0.034-0.167 0.067-0.3 0.1-0.4 0.067-0.233 0.15-0.467 0.25-0.7 0.067-0.167 0.117-0.35 0.15-0.55 0.167-0.467 0.35-0.983 0.55-1.55v-142.5h-0.95v141.4c-0.167 0.566-0.3 1.083-0.4 1.55-0.2 0.567-0.383 1.117-0.55 1.65-0.067 0.233-0.15 0.467-0.25 0.7-2.267 6.333-5.9 12.117-10.9 17.35-0.367 0.367-0.733 0.716-1.1 1.05-9.567 9.367-21.033 14.167-34.4 14.4h-1.15c-13.867 0-25.717-4.8-35.55-14.4-5.567-5.433-9.55-11.567-11.95-18.4-0.066-0.233-0.133-0.467-0.2-0.7-0.2-0.533-0.4-1.083-0.6-1.65-0.2-0.733-0.4-1.467-0.6-2.2v-140.75h-0.75v141.85c0.233 0.733 0.467 1.467 0.7 2.2 0 0.1 0.017 0.2 0.05 0.3z" fill="#fff" fill-opacity=".1255"/>
						<linearGradient id="z" x1="75.922" x2="210.75" y1="-16186" y2="-16186" gradientTransform="matrix(7.417e-6 -1 1 -.001 16236 23.898)" gradientUnits="userSpaceOnUse">
						<stop stop-opacity=".3294" offset=".0863"/>
						<stop stop-opacity=".3294" offset=".2275"/>
					</linearGradient>
					<path d="m0.75-179.2v140.75c0.2 0.733 0.4 1.467 0.6 2.2 0.2 0.567 0.4 1.117 0.6 1.65 0.066 0.233 0.133 0.467 0.2 0.7 2.4 6.833 6.383 12.967 11.95 18.4 9.833 9.6 21.683 14.4 35.55 14.4h1.15c13.367-0.233 24.833-5.033 34.4-14.4 0.367-0.333 0.733-0.683 1.1-1.05 5-5.233 8.633-11.017 10.9-17.35 0.1-0.233 0.183-0.467 0.25-0.7 0.167-0.533 0.35-1.083 0.55-1.65 0.1-0.467 0.233-0.983 0.4-1.55v-141.4h-5.9c0.233 3.934 0.333 7.3 0.3 10.1 0 0.9-0.267 1.7-0.8 2.4v126.05h-84.95v-128.85c-0.533-3.033-0.85-6.267-0.95-9.7h-5.35zm0.05 144.6c-0.032-0.096-0.048-0.18-0.05-0.25v0.25h0.05z" fill="url(#z)"/>
					<path d="m94.45-153.6c0.233 0.133 0.35 0.233 0.35 0.3 0.2-0.067 0.333-0.2 0.4-0.4-0.267-0.4-0.483-0.633-0.65-0.7-0.167 0.033-0.283 0.066-0.35 0.1-0.067 0.033-0.1 0.167-0.1 0.4 0 0.07 0.117 0.17 0.35 0.3z" fill="#E0D7CF"/>
					<linearGradient id="aa" x1="92.843" x2="84.543" y1="-112" y2="-111.97" gradientUnits="userSpaceOnUse">
						<stop stop-color="#160C00" stop-opacity=".2392" offset="0"/>
						<stop stop-opacity="0" offset="1"/>
					</linearGradient>
					<polygon points="82.3 -44.8 90.8 -44.8 90.8 -179.15 82.3 -179.15" fill="url(#aa)"/>
					<linearGradient id="ab" x1="8.3501" x2="14.65" y1="-111.97" y2="-111.97" gradientUnits="userSpaceOnUse">
						<stop stop-color="#160C00" stop-opacity=".2392" offset="0"/>
						<stop stop-opacity="0" offset="1"/>
					</linearGradient>
					<polygon points="8.9 -44.8 21.9 -44.8 21.9 -179.15 8.9 -179.15" fill="url(#ab)"/>
						<linearGradient id="ac" x1="50.05" x2="50.05" y1="-43.487" y2="-47.712" gradientUnits="userSpaceOnUse">
							<stop stop-color="#160C00" stop-opacity=".2392" offset="0"/>
							<stop stop-opacity="0" offset="1"/>
						</linearGradient>
						<path d="m94.85-38.25v-11.05c-2-1.767-5.25-2.883-9.75-3.35h-66.65c-6.1 1.3-10.5 3.283-13.2 5.95v8.8l89.6-0.35z" fill="url(#ac)"/>
						<path d="m89.9-41.2c0 0.034-0.017 0.083-0.05 0.15-0.1 0.433-0.217 0.867-0.35 1.3v0.1c-0.2 0.667-0.4 1.316-0.6 1.95-2.033 5.7-5.333 10.867-9.9 15.5-6.33 6.356-13.697 10.215-22.1 11.575-2.305 0.383-4.688 0.575-7.15 0.575-1.53 0-3.03-0.075-4.5-0.225-9.513-0.934-17.763-4.909-24.75-11.925-1.033-1.066-2-2.15-2.9-3.25 1.3 1.8 2.767 3.534 4.4 5.2 6.617 6.645 14.367 10.562 23.25 11.75 1.946 0.267 3.946 0.4 6 0.4 1.931 0 3.815-0.117 5.65-0.35 9.029-1.135 16.896-5.068 23.6-11.8 4.567-4.633 7.867-9.8 9.9-15.5 0.2-0.633 0.4-1.283 0.6-1.95v-0.1c0.033-0.133 0.083-0.267 0.15-0.4 0.033-0.167 0.117-0.633 0.25-1.4 0.067-0.467 0.233-1.05 0.5-1.75-0.667 0.067-1.333 0.117-2 0.15zm-81-4.2v-133.75h-1.6v133.55c0.434 0.7 0.917 1.083 1.45 1.15 0.771 0.117 13.905 0.15 39.4 0.1 3.735-6e-3 7.735-0.014 12-0.025 8.135-0.017 17.235-0.042 27.3-0.075-0.367-0.133-0.733-0.25-1.1-0.35h-77.45v-0.6zm85.9-133.75v135c0.034 0.2 0.067 0.383 0.1 0.55 0.467 3.2 0.617 5.033 0.45 5.5-2.2 7.633-6.3 14.467-12.3 20.5-7.27 7.351-15.987 11.952-26.15 13.8-2.371 0.434-4.821 0.717-7.35 0.85-1.457-0.063-2.891-0.188-4.3-0.375-10.549-1.34-19.749-5.965-27.6-13.875-5.967-6.033-10.05-12.867-12.25-20.5-0.2-0.733-0.4-1.466-0.6-2.2v-139.25h-2.1v139.25c0.167 0.733 0.367 1.467 0.6 2.2 2.167 7.633 6.25 14.467 12.25 20.5 8.361 8.422 18.261 13.13 29.7 14.125 1.103 0.09 2.219 0.149 3.35 0.175h2.25c2.065-0.042 4.082-0.201 6.05-0.475 10.364-1.429 19.397-6.038 27.1-13.825 6-6.033 10.1-12.867 12.3-20.5 0.167-0.5 0.3-1.017 0.4-1.55v-139.9h-1.9z" fill="#CB6207"/>
						<path d="m11.7-39.1l-1.65-2.1h-0.4c0.133 0.5 0.267 0.983 0.4 1.45 0 0.033 0.017 0.25 0.05 0.65 0.167 0.3 0.367 0.767 0.6 1.4 1.533 4.4 3.833 8.483 6.9 12.25 0.9 1.1 1.867 2.184 2.9 3.25 6.987 7.016 15.237 10.991 24.75 11.925 1.47 0.15 2.97 0.225 4.5 0.225 2.461 0 4.845-0.192 7.15-0.575 8.403-1.36 15.77-5.219 22.1-11.575 4.567-4.633 7.867-9.8 9.9-15.5 0.2-0.633 0.4-1.283 0.6-1.95v-0.1c0.133-0.433 0.25-0.867 0.35-1.3 0.033-0.067 0.05-0.117 0.05-0.15h-0.15l-1.4 1.55-0.95 0.2c0.5-0.066 0.75-0.083 0.75-0.05l-0.05 0.15c-1.833 5.667-4.95 10.8-9.35 15.4-6.196 6.458-13.479 10.383-21.85 11.775-2.301 0.383-4.684 0.575-7.15 0.575-1.532 0-3.032-0.075-4.5-0.225-9.492-0.953-17.658-4.995-24.5-12.125-4.367-4.533-7.417-9.583-9.15-15.15l0.3 0.25-0.2-0.25z" fill="#B85600"/>
						<path d="m89.75-41.2h0.15c0.667-0.033 1.333-0.083 2-0.15-0.267 0.7-0.433 1.283-0.5 1.75-0.133 0.767-0.217 1.233-0.25 1.4-0.066 0.133-0.117 0.267-0.15 0.4v0.1c-0.2 0.667-0.4 1.317-0.6 1.95-2.033 5.7-5.333 10.867-9.9 15.5-6.704 6.731-14.571 10.665-23.6 11.8-1.835 0.233-3.719 0.35-5.65 0.35-2.054 0-4.054-0.133-6-0.4-8.883-1.188-16.633-5.105-23.25-11.75-1.633-1.667-3.1-3.4-4.4-5.2-3.067-3.767-5.367-7.85-6.9-12.25-0.233-0.633-0.434-1.1-0.6-1.4-0.033-0.4-0.05-0.617-0.05-0.65-0.133-0.467-0.267-0.95-0.4-1.45h80.1zm-2.35 1.75l-75.7 0.35 0.2 0.25-0.3-0.25c1.733 5.567 4.783 10.617 9.15 15.15 6.842 7.13 15.008 11.172 24.5 12.125 1.468 0.15 2.968 0.225 4.5 0.225 2.466 0 4.849-0.191 7.15-0.575 8.371-1.393 15.654-5.317 21.85-11.775 4.4-4.6 7.517-9.733 9.35-15.4l0.05-0.15c0-0.033-0.25-0.017-0.75 0.05zm-80.1-139.7h-2.5v139.25c0.2 0.733 0.4 1.467 0.6 2.2 2.2 7.633 6.283 14.467 12.25 20.5 7.851 7.91 17.051 12.535 27.6 13.875 1.409 0.188 2.843 0.313 4.3 0.375 2.529-0.132 4.979-0.416 7.35-0.85 10.163-1.849 18.88-6.449 26.15-13.8 6-6.033 10.1-12.867 12.3-20.5 0.167-0.467 0.017-2.3-0.45-5.5-0.033-0.167-0.066-0.35-0.1-0.55v-135h-1.55v134.25h-2.45v0.1h-4.45c0.367 0.1 0.733 0.216 1.1 0.35-10.065 0.033-19.165 0.058-27.3 0.075-4.265 0.011-8.265 0.019-12 0.025-25.495 0.05-38.628 0.017-39.4-0.1-0.533-0.067-1.017-0.45-1.45-1.15v-133.55z" fill="#F98D2E"/>
						<path d="m87.4-39.45l0.95-0.2 1.4-1.55h-79.7l1.65 2.1 75.7-0.35zm3.4-5.45h2.45v-134.25h-2.45v134.25z" fill="#FFBF5B"/>
						<polygon points="90.8 -44.9 90.8 -45.4 8.9 -45.4 8.9 -44.8 86.35 -44.8 90.8 -44.8" fill-opacity=".3686"/>
	</g>
</symbol>
<symbol id="ai" viewBox="2.5 -181.4 99.35 179.2">
		<use x="2.5" y="-181.4" width="99.35" height="179.2" xlink:href="#aj"/>
</symbol>
<symbol id="aj" viewBox="2.5 -181.4 99.35 179.2">
			<polygon points="94.2 -46.7 94.85 -181.3 10.7 -181.3 10.95 -46.6" clip-rule="evenodd" fill="#E6785D" fill-rule="evenodd"/>
			<use transform="translate(2 -2.2998)" x="18.35" y="-167.2" width="64.1" height="114.2" xlink:href="#al"/>
			<use transform="translate(2.5 -2.2002)" y="-179.2" width="99.35" height="179.2" xlink:href="#t"/>
				<path d="m75.75-136.75l12.05 0.15v1.95c0.467 0.4 1 0.6 1.6 0.6h0.05c0.733 0 1.367-0.317 1.9-0.95 0.267-0.333 0.483-0.683 0.65-1.05 0.167-1.967-0.567-3.3-2.2-4-0.1 0-0.2-0.017-0.3-0.05h-13.75c-0.367 0-0.683 0.083-0.95 0.25-0.3 0.2-0.45 0.417-0.45 0.65 0 0.067 0.017 0.133 0.05 0.2 0 0.033 0.017 0.05 0.05 0.05 0.066 0.133 0.183 0.25 0.35 0.35 0.267 0.17 0.583 0.78 0.95 1.85z" clip-rule="evenodd" fill-opacity=".1882" fill-rule="evenodd"/>
			<g clip-rule="evenodd" fill-rule="evenodd">
					<linearGradient id="ad" x1="364.22" x2="375.45" y1="-14937" y2="-14937" gradientTransform="matrix(3.8512e-5 -.4323 .4323 -.00043231 6546.7 17.282)" gradientUnits="userSpaceOnUse">
					<stop stop-color="#D9D9D9" offset="0"/>
					<stop stop-color="#6E6E6E" offset="1"/>
				</linearGradient>
				<path d="m91.749-136.19c0-0.692-0.238-1.283-0.713-1.773-0.476-0.475-1.052-0.713-1.729-0.713s-1.246 0.238-1.708 0.713c-0.476 0.49-0.713 1.081-0.713 1.773 0 0.677 0.238 1.261 0.713 1.751 0.476 0.475 1.045 0.713 1.708 0.713 0.677 0 1.254-0.238 1.729-0.713 0.475-0.49 0.713-1.07 0.713-1.75z" fill="url(#ad)"/>
				<path d="m91.381-136.1c0-0.605-0.209-1.124-0.627-1.557-0.432-0.418-0.944-0.627-1.535-0.627s-1.095 0.209-1.513 0.627c-0.417 0.433-0.626 0.951-0.626 1.557 0 0.605 0.209 1.117 0.626 1.535 0.418 0.432 0.922 0.648 1.513 0.648s1.103-0.216 1.535-0.648c0.418-0.42 0.627-0.94 0.627-1.54z" fill="#A7A7A7"/>
					<linearGradient id="ae" x1="15940" x2="15946" y1="-529.48" y2="-529.48" gradientTransform="matrix(-.0186 -.4319 .4319 -.0181 613.77 6740.3)" gradientUnits="userSpaceOnUse">
					<stop stop-color="#B3B3B3" offset="0"/>
					<stop stop-color="#6E6E6E" offset="1"/>
				</linearGradient>
				<path d="m87.472-136c0.02 0.461 0.195 0.85 0.526 1.167 0.331 0.303 0.719 0.445 1.165 0.426s0.814-0.193 1.103-0.523c0.303-0.345 0.444-0.748 0.424-1.208-0.02-0.461-0.195-0.85-0.526-1.167-0.316-0.304-0.697-0.446-1.144-0.427-0.446 0.019-0.821 0.194-1.124 0.524-0.303 0.35-0.444 0.75-0.424 1.21z" fill="url(#ae)"/>
			</g>
					<linearGradient id="af" x1="236.76" x2="239.51" y1="-16151" y2="-16151" gradientTransform="matrix(.00036364 -1 1 -.0087 16233 -38.453)" gradientUnits="userSpaceOnUse">
					<stop stop-color="#B3B3B3" offset="0"/>
					<stop stop-color="#6E6E6E" offset="1"/>
				</linearGradient>
				<path d="m74.4-135.1c0.267 0.333 0.6 0.5 1 0.5h13.7c0.4 0 0.733-0.167 1-0.5 0.267-0.367 0.4-0.783 0.4-1.25 0-0.5-0.133-0.917-0.4-1.25s-0.6-0.5-1-0.5h-13.7c-0.4 0-0.733 0.167-1 0.5-0.3 0.333-0.45 0.75-0.45 1.25 0 0.47 0.15 0.88 0.45 1.25z" clip-rule="evenodd" fill="url(#af)" fill-rule="evenodd"/>
				<g clip-rule="evenodd" fill-rule="evenodd">
					<path d="m90.5-136.2v-0.15c0-0.5-0.133-0.917-0.4-1.25s-0.6-0.5-1-0.5h-13.7c-0.4 0-0.733 0.167-1 0.5-0.3 0.333-0.45 0.75-0.45 1.25 0 0.133 0.017 0.267 0.05 0.4 0.033-0.4 0.167-0.75 0.4-1.05 0.3-0.333 0.65-0.5 1.05-0.5h13.65c0.4 0 0.75 0.167 1.05 0.5 0.167 0.23 0.283 0.5 0.35 0.8z" fill-opacity=".3804"/>
					<path d="m74-135.95c0.033 0.067 0.05 0.133 0.05 0.2 0.067-0.3 0.184-0.567 0.35-0.8 0.3-0.333 0.65-0.5 1.05-0.5h13.65c0.4 0 0.75 0.167 1.05 0.5 0.133 0.2 0.25 0.417 0.35 0.65v-0.3c-0.067-0.3-0.183-0.566-0.35-0.8-0.3-0.333-0.65-0.5-1.05-0.5h-13.65c-0.4 0-0.75 0.167-1.05 0.5-0.233 0.3-0.367 0.65-0.4 1.05z" fill-opacity=".1922"/>
				</g>
						<linearGradient id="ag" x1="236.76" x2="239.51" y1="-16151" y2="-16151" gradientTransform="matrix(.00036364 -1 1 -.0087 16233 -38.453)" gradientUnits="userSpaceOnUse">
						<stop stop-color="#fff" offset=".0275"/>
						<stop stop-color="#B3B3B3" stop-opacity=".1059" offset=".2471"/>
						<stop stop-color="#6E6E6E" stop-opacity="0" offset="1"/>
					</linearGradient>
					<path d="m73.95-136.35c0 0.467 0.15 0.883 0.45 1.25 0.267 0.333 0.6 0.5 1 0.5h13.7c0.4 0 0.733-0.167 1-0.5 0.267-0.367 0.4-0.783 0.4-1.25 0-0.5-0.133-0.917-0.4-1.25s-0.6-0.5-1-0.5h-13.7c-0.4 0-0.733 0.167-1 0.5-0.3 0.33-0.45 0.75-0.45 1.25z" clip-rule="evenodd" fill="url(#ag)" fill-rule="evenodd"/>
			<path d="m90.7-41.85l-76.55 0.55c1.733 5.566 4.783 10.617 9.15 15.15 6.833 7.133 15 11.167 24.5 12.1 1.467 0.167 2.967 0.25 4.5 0.25 2.467 0 4.85-0.2 7.15-0.6 8.367-1.367 15.65-5.283 21.85-11.75 4.4-4.6 7.517-9.733 9.35-15.4l0.05-0.15v-0.15z" clip-rule="evenodd" fill="#EDDAC9" fill-rule="evenodd"/>
				<path d="m54.4-26.25l0.05-0.25-0.2-0.1-0.2 0.1c0.1 0.167 0.217 0.25 0.35 0.25z" clip-rule="evenodd" fill="#EDDAC9" fill-rule="evenodd"/>
					<linearGradient id="ah" x1="51.957" x2="52.277" y1="-19.154" y2="-36.754" gradientUnits="userSpaceOnUse">
						<stop stop-color="#9BA3A8" offset="0"/>
						<stop stop-color="#545F63" offset="1"/>
					</linearGradient>
					<path d="m86.5-38.15l0.05-0.1c0.167-0.3 0.317-0.65 0.45-1.05 0-0.034 0.017-0.067 0.05-0.1h-69.45l0.05 0.05c0.1 0.4 0.233 0.767 0.4 1.1 0 0.067 0.034 0.233 0.1 0.5 0.167 0.267 0.367 0.65 0.6 1.15 2.167 4.467 5.3 8.417 9.4 11.85 0.434 0.367 0.867 0.717 1.3 1.05 0.4 0.3 0.816 0.6 1.25 0.9l0.05 0.05c0.533 0.367 1.083 0.733 1.65 1.1 5.3 3.333 11.167 5.167 17.6 5.5 0.233 0.033 0.45 0.05 0.65 0.05h0.35c0.233 0.033 0.467 0.05 0.7 0.05h0.95c0.233 0 0.483-0.017 0.75-0.05 0.1 0.033 0.233 0.033 0.4 0h0.65c1-0.066 1.983-0.167 2.95-0.3 0.8-0.067 1.6-0.184 2.4-0.35 4.4-0.833 8.517-2.467 12.35-4.9 0.067-0.033 0.133-0.083 0.2-0.15 0.5-0.3 0.983-0.617 1.45-0.95 0.034-0.033 0.067-0.067 0.1-0.1 0.033 0 0.067-0.017 0.1-0.05 0.367-0.233 0.733-0.5 1.1-0.8 0.033-0.033 0.1-0.083 0.2-0.15 0.367-0.267 0.733-0.566 1.1-0.9 4.1-3.433 7.233-7.383 9.4-11.85 0.233-0.5 0.467-1.017 0.7-1.55z" clip-rule="evenodd" fill="url(#ah)" fill-rule="evenodd"/>
					<path d="m30.9-25.9c-0.167-0.1-0.316-0.2-0.45-0.3-3.6-2.733-6.4-5.933-8.4-9.6-0.1-0.133-0.183-0.267-0.25-0.4-0.2-0.4-0.367-0.716-0.5-0.95h21.35l-11.75 11.25zm-12.6-11.2l-0.15-0.55c0 0.066 0.033 0.233 0.1 0.5l0.05 0.05zm34.3 17.3l-10.05-10 20.65 0.05-10.6 9.95zm-2.5-12.25h-7.7l5.25-5.05h1.55l0.05-0.05h0.85v5.1zm5.75-5.05h1.4l5.2 5.05h-7.95v-5.05h0.1v-0.05h1.2l0.05 0.05zm-6.3 18.05c-0.233 0-0.466-0.017-0.7-0.05-5.434-0.467-10.4-2.05-14.9-4.75-0.034 0-0.05-0.017-0.05-0.05l5.5-5.25 10.15 10.1zm21.25-4.85c-0.066 0-0.1 0.017-0.1 0.05h-0.05c-3.9 2.333-8.1 3.833-12.6 4.5-0.767 0.1-1.533 0.184-2.3 0.25l10.2-9.65 4.95 4.75-0.1 0.1zm14.2-11.9c0.233-0.434 0.45-0.867 0.65-1.3l0.1-1.7h-67.45c0.7 1.733 1.133 2.733 1.3 3 2.1 3.8 4.95 7.216 8.55 10.25 0.434 0.367 0.867 0.716 1.3 1.05 0.4 0.3 0.816 0.6 1.25 0.9l0.05 0.05c0.533 0.367 1.083 0.733 1.65 1.1 5.3 3.333 11.167 5.167 17.6 5.5 0.233 0.034 0.45 0.05 0.65 0.05h0.35c0.233 0.033 0.467 0.05 0.7 0.05h0.95c0.233 0 0.483-0.017 0.75-0.05 0.1 0.033 0.233 0.033 0.4 0h0.65c1-0.067 1.983-0.167 2.95-0.3 0.8-0.066 1.6-0.183 2.4-0.35 4.4-0.833 8.517-2.467 12.35-4.9 0.067-0.033 0.133-0.083 0.2-0.15 0.5-0.3 0.983-0.617 1.45-0.95l0.1-0.1c0.033 0 0.067-0.017 0.1-0.05 0.367-0.233 0.733-0.5 1.1-0.8 0.033-0.033 0.1-0.083 0.2-0.15 0.367-0.267 0.733-0.567 1.1-0.9 3.6-3.033 6.467-6.45 8.6-10.25zm-1.7-1.35c-0.2 0.333-0.367 0.65-0.5 0.95-0.066 0.133-0.133 0.267-0.2 0.4-2.1 3.667-4.917 6.867-8.45 9.6-0.1 0.067-0.2 0.133-0.3 0.2l-11.55-11.15h21z" clip-rule="evenodd" fill-opacity=".1412" fill-rule="evenodd"/>
					<path d="m73.85-25.2l1.45 1.35c0.367-0.267 0.733-0.566 1.1-0.9 4.1-3.433 7.233-7.383 9.4-11.85 0.233-0.5 0.467-1.017 0.7-1.55l0.05-0.1c0.167-0.3 0.317-0.65 0.45-1.05 0-0.034 0.017-0.067 0.05-0.1h-0.05l-3.05 1.75c-0.167 0.333-0.317 0.617-0.45 0.85l-0.05 0.15c-0.267 0.433-0.483 0.85-0.65 1.25-2.1 3.833-4.983 7.167-8.65 10-0.1 0.067-0.2 0.133-0.3 0.2zm-18.1 6.9l-2.35 2.2c0.1 0.033 0.233 0.033 0.4 0h0.65c1-0.066 1.983-0.167 2.95-0.3 0.8-0.067 1.6-0.184 2.4-0.35 4.4-0.833 8.517-2.467 12.35-4.9 0.067-0.033 0.133-0.083 0.2-0.15 0.5-0.3 0.983-0.617 1.45-0.95 0.034-0.033 0.067-0.067 0.1-0.1l-2.9-0.25h-0.05l-0.05-0.1c-0.033 0.034-0.066 0.067-0.1 0.1-0.066 0-0.1 0.017-0.1 0.05h-0.05c-3.9 2.333-8.1 3.833-12.6 4.5-0.767 0.1-1.533 0.183-2.3 0.25zm-21.85-4.8l-0.05 0.05-3.1 0.3c0.533 0.367 1.083 0.733 1.65 1.1 5.3 3.333 11.167 5.167 17.6 5.5 0.233 0.033 0.45 0.05 0.65 0.05h0.35c0.233 0.033 0.467 0.05 0.7 0.05l-2.15-2.2c-0.233 0-0.466-0.017-0.7-0.05-5.434-0.467-10.4-2.05-14.9-4.75-0.033 0-0.05-0.017-0.05-0.05zm7.45-6.35l-0.55-0.25 0.25 0.2 0.15 0.2 11.4 11.35 12.5-11.75-0.65 0.25-0.85 0.35-0.35 0.15h-0.05l-10.6 9.95-10.05-10h-0.1l-1.1-0.45zm-20.45-8.3l-3.25-1.6c0.1 0.4 0.233 0.767 0.4 1.1 0 0.067 0.034 0.233 0.1 0.5 0.167 0.267 0.367 0.65 0.6 1.15 2.167 4.467 5.3 8.417 9.4 11.85 0.434 0.367 0.867 0.717 1.3 1.05l1.45-1.4c-0.167-0.1-0.316-0.2-0.45-0.3-3.733-2.833-6.617-6.167-8.65-10-0.2-0.4-0.367-0.717-0.5-0.95-0.133-0.2-0.183-0.35-0.15-0.45-0.167-0.3-0.316-0.617-0.45-0.95h0.2z" clip-rule="evenodd" fill="#D0B39A" fill-rule="evenodd"/>
					<path d="m87-39.4h-27.95l1.75 1.65h23.2c-0.067 0.067-0.083 0.1-0.05 0.1l3.05-1.75zm-36.9 0h-2.2l2.2 1.3v-1.3zm6.85 0h-2.45v1.65h0.15l2.3-1.65zm-36.05 1.65h23.2l1.7-1.65h-28.2l0.05 0.05 3.25 1.6z" clip-rule="evenodd" fill="#EBCFB6" fill-rule="evenodd"/>
					<path d="m70.9-23.2l0.05 0.1h0.05l2.9 0.25c0.033 0 0.067-0.017 0.1-0.05l-6.6-6.4-1.45 1.35 4.95 4.75zm-15.2-14.55l6.75 6.5h2.9l-8.45-8.1-1.25 1.55 0.05 0.05zm-25 14.95l0.05 0.05 3.1-0.3 0.05-0.05 5.5-5.25-1.45-1.4-7.25 6.95zm17.2-16.5l-8.4 8.05h2.9l6.75-6.5-1.25-1.55z" clip-rule="evenodd" fill="#DFC3AA" fill-rule="evenodd"/>
					<path d="m39.4-28.35l10.15 10.1 2.15 2.2h0.95c0.233 0 0.483-0.017 0.75-0.05l2.35-2.2 10.2-9.65 1.45-1.35 6.6 6.4c0.367-0.233 0.733-0.5 1.1-0.8 0.033-0.033 0.1-0.083 0.2-0.15l-1.45-1.35-13.05-12.55-1.75-1.65h-2.1l-0.05 0.05 8.45 8.1h-10.85v-8.15h-4.4v8.15h-10.6l8.4-8.05-0.1-0.1h-2l-1.7 1.65-13.2 12.65-1.45 1.4c0.4 0.3 0.816 0.6 1.25 0.9l7.25-6.95 1.45 1.4zm23.8-0.6l-20.65-0.05 10.05 10 10.6-9.95zm-22.4-0.75h24.3l-12.5 11.75-11.4-11.35-0.15-0.2-0.25-0.2z" clip-rule="evenodd" fill="#EDDAC9" fill-rule="evenodd"/>
					<path d="m64.45-29.45h-23.1l1.1 0.45h0.1l20.65 0.05 0.4-0.15 0.85-0.35zm-14.35-8.65l-2.2-1.3h-0.1l0.1 0.1 1.25 1.55h0.95v-0.35zm6.85-1.3l-2.3 1.65h1.05l-0.05-0.05 1.25-1.55 0.05-0.05z" clip-rule="evenodd" fill="#BCA086" fill-rule="evenodd"/>
					<polygon points="41.35 -29.45 64.45 -29.45 65.1 -29.7 40.8 -29.7" clip-rule="evenodd" fill="#E6D2C1" fill-rule="evenodd"/>
					<linearGradient id="v" x1="63.217" x2="63.537" y1="-18.95" y2="-36.55" gradientUnits="userSpaceOnUse">
						<stop stop-color="#fff" offset="0"/>
						<stop stop-color="#8B9CA1" offset="1"/>
					</linearGradient>
					<polygon points="63.6 -29.1 63.2 -28.95 63.25 -28.95" clip-rule="evenodd" fill="url(#v)" fill-rule="evenodd"/>
					<g clip-rule="evenodd" fill-rule="evenodd">
						<linearGradient id="w" x1="40.233" x2="26.256" y1="-39.072" y2="-38.186" gradientUnits="userSpaceOnUse">
							<stop stop-opacity=".2" offset="0"/>
							<stop stop-opacity="0" offset="1"/>
						</linearGradient>
						<polygon points="45.8 -39.4 20.7 -39.4 31.5 -37.75 44.1 -37.75" fill="url(#w)"/>
						<linearGradient id="x" x1="56.05" x2="78.15" y1="-38.575" y2="-38.575" gradientUnits="userSpaceOnUse">
							<stop stop-opacity=".2" offset="0"/>
							<stop stop-opacity="0" offset="1"/>
						</linearGradient>
						<polygon points="60.8 -37.75 71.1 -37.75 84.35 -39.4 59.05 -39.4" fill="url(#x)"/>
					</g>
						<linearGradient id="y" x1="52.3" x2="52.3" y1="-32.15" y2="-33.75" gradientUnits="userSpaceOnUse">
							<stop stop-opacity=".2" offset="0"/>
							<stop stop-opacity="0" offset="1"/>
						</linearGradient>
						<polygon points="50.1 -39.4 50.1 -31.25 54.5 -31.25 54.5 -39.4" clip-rule="evenodd" fill="url(#y)" fill-rule="evenodd"/>
</symbol>
<symbol id="ak" viewBox="3.5 -186.4 99.35 179.2">
			<use transform="translate(1 -5)" x="2.5" y="-181.4" width="99.35" height="179.2" xlink:href="#ai"/>
</symbol>
<symbol id="al" clip-rule="evenodd" fill-rule="evenodd" viewBox="18.35 -167.2 64.1 114.2">
		<path d="m80.75-127.35h-22.65v72.55h22.7v-72.55h-0.05zm-60.65 72.55h22.6v-72.55h-22.7v72.55h0.1zm60.7-85.4v-25.1h-22.7v25.1h22.7zm-38.2-25.1h-22.6v25.1h22.7v-25.1h-0.1z" fill="#427B74"/>
		<path d="m80.8-54.8l1.6 1.8h0.05v-76.05l-1.7 1.7h0.05v72.55zm-36.45-74.25l-1.75 1.7h0.1v72.55l1.6 1.8h0.05v-76.05zm0-37.95l-1.75 1.7h0.1v25.1l1.6 1.8h0.05v-28.6zm38.1 0l-1.7 1.7h0.05v25.1l1.6 1.8h0.05v-28.6z" fill="#629690"/>
		<path d="m56.55-129.25l1.55 2.15v-0.25h22.65l1.7-1.7v-0.2h-25.9zm-12.2 0.2v-0.2h-25.95l1.6 2.15v-0.25h22.6l1.75-1.7zm-1.75-36.25l1.75-1.7v-0.2h-25.95l1.6 2.15v-0.25h22.6zm39.85-1.7v-0.2h-25.9l1.55 2.15v-0.25h22.65l1.7-1.7z" fill="#71A8A1"/>
		<path d="m58.2-54.8l-1.75 1.65v0.15h25.95l-1.6-1.8h-22.6zm-15.5 0h-22.6l-1.75 1.65v0.15h25.95l-1.6-1.8zm0-85.4h-22.6l-1.75 1.65v0.15h25.95l-1.6-1.8zm15.5 0l-1.75 1.65v0.15h25.95l-1.6-1.8h-22.6z" fill="#3B6A64"/>
		<path d="m58.1-127.1l-1.55-2.15h-0.1v76.1l1.75-1.65h-0.1v-72.3zm-38 72.3h-0.1v-72.3l-1.6-2.15h-0.05v76.1l1.75-1.65zm-0.1-110.25l-1.6-2.15h-0.05v28.65l1.75-1.65h-0.1v-24.85zm36.55-2.15h-0.1v28.65l1.75-1.65h-0.1v-24.85l-1.55-2.15z" fill="#214843"/>
			<polygon points="23.85 -59.1 40.05 -57.85 41.35 -59.1 41.35 -125.75 23.85 -125.75 22.5 -124.5 25.25 -123.7" fill="#150700" fill-opacity=".1922"/>
			<polygon points="78.25 -57.85 79.55 -59.1 79.55 -125.75 62.05 -125.75 60.7 -124.5 63.45 -123.7 62.05 -59.1" fill="#150700" fill-opacity=".1922"/>
			<polygon points="23.4 -144.7 39.85 -143.65 40.9 -144.7 40.9 -163.9 23.4 -163.9 22.6 -162.75 26.8 -160.6" fill-opacity=".1882"/>
			<polygon points="78.15 -143.65 79.2 -144.7 79.2 -163.9 61.7 -163.9 60.9 -162.75 65.1 -160.6 61.7 -144.7" fill-opacity=".1882"/>
		<path d="m24.75-122.05l-2.15-2.4v66.5h0.2l2-2.35h-0.05v-61.75zm38.1 0l-2.15-2.4v66.5h0.2l2-2.35h-0.05v-61.75zm0-38.2l-2.15-2.45v19.1h0.2l2-2.35h-0.05v-14.3zm-38.1 0l-2.15-2.45v19.1h0.2l2-2.35h-0.05v-14.3z" fill="#6FACA5"/>
		<path d="m62.9-60.3l-2 2.35h16.75l-2.3-2.35h-12.45zm-25.7 0h-12.4l-2 2.35h16.75l-2.35-2.35zm25.7-85.65l-2 2.35h16.75l-2.3-2.35h-12.45zm-40.1 2.35h16.75l-2.35-2.35h-12.4l-2 2.35z" fill="#81BEB7"/>
		<path d="m39.55-57.95h0.55v-66.65h-0.05l-2.35 2.85v61.45h-0.5l2.35 2.35zm38.65-66.65l-2.4 2.85v61.45h-0.45l2.3 2.35h0.6v-66.65h-0.05zm0-38.2l-2.4 2.85v14h-0.45l2.3 2.35h0.6v-19.2h-0.05zm-40.5 2.85v14h-0.5l2.35 2.35h0.55v-19.2h-0.05l-2.35 2.85z" fill="#679791"/>
		<path d="m37.2-60.3h0.5v-61.9h-12.95v61.9h12.45zm25.7 0h12.9v-61.9h-12.95v61.9h0.05zm12.9-99.65v-0.45h-12.95v14.45h12.95v-14zm-38.1 0v-0.45h-12.95v14.45h12.95v-14z" fill="#67A59E"/>
		<path d="m22.6-124.45l2.15 2.4v-0.15h12.95v0.45l2.35-2.85h-17.45v0.15zm38.1 0l2.15 2.4v-0.15h12.95v0.45l2.4-2.85h-17.5v0.15zm15.1-35.5l2.4-2.85h-17.5v0.1l2.15 2.45v-0.15h12.95v0.45zm-53.2-2.75l2.15 2.45v-0.15h12.95v0.45l2.35-2.85h-17.45v0.1z" fill="#4F8882"/>
</symbol>
<use transform="matrix(1 0 0 -1 6.0498 -6.3999)" x="3.5" y="-186.4" width="99.35" height="179.2" xlink:href="#ak"/>
</svg>